<svg xmlns="http://www.w3.org/2000/svg" width="148.8" height="126.292" viewBox="0 0 748.8 826.292">
  <g id="logoSvg" transform="translate(-702.707 -5.049)">
    <g id="Group_8" data-name="Group 8" transform="translate(760.93 9.727)">
      <path id="Path_74" data-name="Path 74" d="M1022.545,12.848,723.751,149.611a34.424,34.424,0,0,0-10.8,54.833l29.278,31.266a34.432,34.432,0,0,0,39.118,7.923L1022.81,136.2a34.441,34.441,0,0,1,28.141.071l238.84,107.647a34.4,34.4,0,0,0,38.246-6.817l31.733-31.135a34.419,34.419,0,0,0-9.739-55.847l-298.8-137.249A34.428,34.428,0,0,0,1022.545,12.848Z" transform="translate(-703.648 -9.727)" fill="none" stroke="#000" stroke-miterlimit="10" stroke-width="9"/>
      <path id="Path_75" data-name="Path 75" d="M726.592,25.983,792.757,501.4c5.519,39.605,62.756,39.555,68.194-.061L926.263,25.983" transform="translate(-493.823 138.928)" fill="none" stroke="#000" stroke-miterlimit="10" stroke-width="9"/>
      <path id="Path_76" data-name="Path 76" d="M783.652,242.873l-47.337,28.69a34.418,34.418,0,0,0-5.407,54.823L867.164,451.126a34.424,34.424,0,0,0,45.844.568l123.756-107.728c32.971-28.7.568-53.95-10.307-58.11L757.944,183.15c-25.849-9.891-30.05-44.688-7.3-60.443L869.517,40.342a34.426,34.426,0,0,1,39.3.061l132.492,92.45a34.43,34.43,0,0,1,1.178,55.6L1011.8,211.85" transform="translate(-556.583 214.188)" fill="none" stroke="#000" stroke-miterlimit="10" stroke-width="9"/>
      <path id="Path_77" data-name="Path 77" d="M783.652,242.672l-47.337,28.69a34.418,34.418,0,0,0-5.407,54.823L867.164,450.915a34.425,34.425,0,0,0,45.844.578l123.756-107.728c32.971-28.71.568-53.95-10.307-58.11L757.944,182.939c-25.849-9.881-30.05-44.678-7.3-60.443L869.517,40.13a34.426,34.426,0,0,1,39.3.071l132.492,92.45a34.42,34.42,0,0,1,1.178,55.594l-30.688,23.4" transform="translate(-556.583 212.3)" fill="none" stroke="#000" stroke-miterlimit="10" stroke-width="9"/>
      <line id="Line_3" data-name="Line 3" x1="18.56" y1="133.348" transform="translate(257.846 345.102)" fill="none" stroke="#000" stroke-miterlimit="10" stroke-width="9"/>
      <path id="Path_78" data-name="Path 78" d="M754.7,227.986,732.667,74.475l-1.623-16.506" transform="translate(-453.11 431.434)" fill="none" stroke="#000" stroke-miterlimit="10" stroke-width="9"/>
      <path id="Path_79" data-name="Path 79" d="M739.512,399.9l25.549-184.4,24.4-176.132" transform="translate(-375.672 261.27)" stroke="#000" stroke-miterlimit="10" stroke-width="9"/>
    </g>
    <!-- <text id="TURING_SAPIENS" data-name="TURING SAPIENS" transform="translate(703.107 807.942)" fill="#000" stroke="#000" stroke-miterlimit="10" stroke-width="0.4" font-size="84" font-family="Calibri" letter-spacing="0.16em"><tspan x="0" y="0">TURING SAPIENS</tspan></text> -->
  </g>
</svg>
